<svg width="24" height="24" viewBox="0 0 24 24" fill="none" xmlns="http://www.w3.org/2000/svg">
<path d="M11.9997 21.334C14.475 21.334 16.849 20.3507 18.5993 18.6003C20.3497 16.85 21.333 14.476 21.333 12.0007C21.333 9.5253 20.3497 7.15133 18.5993 5.40099C16.849 3.65065 14.475 2.66732 11.9997 2.66732C9.52432 2.66732 7.15035 3.65065 5.40001 5.40099C3.64967 7.15133 2.66634 9.5253 2.66634 12.0007C2.66634 14.476 3.64967 16.85 5.40001 18.6003C7.15035 20.3507 9.52432 21.334 11.9997 21.334ZM11.9997 23.6673C5.55618 23.6673 0.333008 18.4442 0.333008 12.0007C0.333008 5.55715 5.55618 0.333984 11.9997 0.333984C18.4432 0.333984 23.6663 5.55715 23.6663 12.0007C23.6663 18.4442 18.4432 23.6673 11.9997 23.6673ZM6.16634 10.834H17.833C18.1424 10.834 18.4392 10.9569 18.658 11.1757C18.8768 11.3945 18.9997 11.6912 18.9997 12.0007C18.9997 12.3101 18.8768 12.6068 18.658 12.8256C18.4392 13.0444 18.1424 13.1673 17.833 13.1673H6.16634C5.85692 13.1673 5.56018 13.0444 5.34138 12.8256C5.12259 12.6068 4.99967 12.3101 4.99967 12.0007C4.99967 11.6912 5.12259 11.3945 5.34138 11.1757C5.56018 10.9569 5.85692 10.834 6.16634 10.834Z" fill="black"/>
</svg>
