<svg width="88" height="88" viewBox="0 0 88 88" fill="none" xmlns="http://www.w3.org/2000/svg">
<circle cx="44" cy="44" r="44" fill="white" fill-opacity="0.3"/>
<path d="M55.1792 44.8258C55.2899 44.652 55.3645 44.4577 55.3988 44.2545C55.433 44.0514 55.4261 43.8434 55.3784 43.6429C55.3308 43.4424 55.2433 43.2536 55.1213 43.0875C54.9993 42.9215 54.8452 42.7816 54.6682 42.6762L39.0206 33.1634C38.7661 33.0093 38.4743 32.9281 38.1768 32.9284C37.2937 32.9284 36.5793 33.627 36.5793 34.4897V53.5107C36.5793 53.8024 36.6628 54.0879 36.8205 54.3355C37.2874 55.0672 38.2714 55.2912 39.0206 54.8354L54.6682 45.3241C54.8748 45.1979 55.0514 45.026 55.1807 44.8242L55.1792 44.8258ZM56.3556 47.9752L40.7096 57.4864C38.4623 58.8538 35.5053 58.1803 34.108 55.9866C33.6356 55.2472 33.3844 54.3881 33.3841 53.5107V34.4913C33.3841 31.9033 35.5289 29.8074 38.1784 29.8074C39.0726 29.8074 39.9494 30.0518 40.7096 30.5139L56.3556 40.0268C58.603 41.3925 59.2921 44.2785 57.8933 46.4738C57.5053 47.0825 56.9786 47.5967 56.3556 47.9752Z" fill="white"/>
</svg>
